<?xml version="1.0" encoding="utf-8"?>
<!-- Generator: Adobe Illustrator 15.1.0, SVG Export Plug-In . SVG Version: 6.00 Build 0)  -->
<!DOCTYPE svg PUBLIC "-//W3C//DTD SVG 1.1//EN" "http://www.w3.org/Graphics/SVG/1.1/DTD/svg11.dtd">
<svg version="1.1" id="レイヤー_1" xmlns="http://www.w3.org/2000/svg" xmlns:xlink="http://www.w3.org/1999/xlink" x="0px"
	 y="0px" width="256px" height="115.47px" viewBox="0 0 256 115.47" enable-background="new 0 0 256 115.47" xml:space="preserve">
<g>
	<path fill="#F51439" d="M79.757,20.919c-0.99,0.248-12.428,5.376-26.334,11.79C59.886,17.714,68.845,2.95,69.81,1.023
		c1.105-2.21-6.632-0.368-7.737,1.105C61.07,3.466,51.485,16.492,43.744,37.187C24.427,46.195,5.317,55.569,3.492,57.394
		c-2.579,2.579-4.013,5.625-3.316,7.369c0.737,1.842,3.685,0.368,7.369-1.842c6.658-3.995,20.089-11.434,33.833-18.96
		c-5.83,17.932-5.821,28.568-2.884,36.276c1.998,5.244,5.814,7.737,9.211,7.737c4.053,0,8.105-1.842,13.264-8.105
		s6.632-13.632,7-15.474c0.369-1.842-1.105,0.369-1.842,1.842s-3.326,5.895-6.632,9.579c-3.305,3.684-6.958,5.526-8.474,5.526
		c-5.158,0-6.65-4.387-7-10.685c-0.369-6.632,1.03-16.158,6.632-31.317c0.069-0.188,0.14-0.375,0.21-0.563
		c16.508-9.003,31.268-16.984,32.58-17.858C85.652,19.445,82.705,20.182,79.757,20.919z"/>
	<path fill="#F51439" d="M141.285,1.023c1.105-2.21-6.631-0.368-7.737,1.105s-9.003,17.011-16.58,41.633
		c-5.895,19.158-8.842,40.078-8.842,43.475c0,1.842,2.45-0.391,2.948-2.947c2.579-13.264,8.653-32.353,14-46.422
		C132.075,19.445,140.18,3.234,141.285,1.023z"/>
	<path fill="#F51439" d="M103.351,55.266c-1.998-5.244-5.813-7.737-9.211-7.737c-3.726,0-7.453,1.56-12.038,6.679
		c1.887-5.754,3.869-11.361,5.761-16.34c7-18.421,15.106-34.632,16.211-36.843c1.105-2.21-6.632-0.368-7.737,1.105
		c-1.105,1.474-9.004,17.011-16.58,41.633c-5.895,19.158-8.842,40.078-8.842,43.475c0,1.842,2.45-0.391,2.947-2.947
		c1.033-5.308,2.625-11.551,4.507-18.03c0.802-1.921,1.998-4.363,3.981-6.573c3.305-3.685,6.958-5.527,8.474-5.527
		c5.158,0,6.65,4.388,7,10.685c0.302,5.442-0.382,12.075-2.833,22.391c-0.441,1.857,5.739-1.75,6.177-3.316
		C105.179,69.552,106.023,62.279,103.351,55.266z"/>
	<path fill="#F51439" d="M252.033,22.314c-3.424-2.169-7.834-2.781-15.543-0.25c-7.709,2.531-12.896,7.968-14.193,9.327
		c-1.297,1.359,1.131,0.28,2.542-0.571s5.964-3.201,10.728-4.543c4.763-1.344,8.835-0.946,10.116-0.134
		c4.358,2.759,3.271,7.265,0.197,12.771c-3.237,5.799-9.516,13.1-22.36,22.908c-8.563,6.54-19.208,12.692-26.854,16.863
		c4.699-14.745,9.096-28.91,9.096-30.135c0-1.772-5.158-0.369-6.632,1.474c-0.661,0.826-4.513,16.208-8.297,31.784
		c-2.087,1.099-3.517,1.841-4,2.132c-1.195,0.721,0.684,1.858,2.855,2.594c-3.472,14.374-6.6,27.66-6.769,28.334
		c-0.369,1.474,1.842,0,2.579-1.842c0.32-0.8,4.187-12.589,8.458-25.878c0.002,0,0.003-0.001,0.005-0.001
		c1.722-0.653,19.847-7.722,39.706-24.131c14.64-12.097,20.357-21.123,22.007-29.236C256.792,28.28,254.901,24.131,252.033,22.314z"
		/>
	<path fill="#F51439" d="M185.497,50.025c-0.222,0.388-0.484,1.462-0.773,3.006c-0.787-1.165-1.982-2.141-3.279-3.006
		c-5.626-3.752-11.79-2.579-15.474-0.368c-3.684,2.21-6.807,5.526-8.649,10.316c-1.507,3.921-2.145,8.466-1.842,11.79
		c0.369,4.053,1.292,7.134,4.053,10.684c2.579,3.316,8.543,6.486,13.632,4.79c5.526-1.842,7.275-5.168,8.185-7.577
		c-0.5,3.769-0.923,6.862-1.009,7.208c-0.369,1.474,1.474,0.737,2.21-1.105s9.579-34.632,9.579-37.211
		C192.129,46.78,186.723,47.879,185.497,50.025z M181.983,74.838c-0.779,1.8-2.39,5.648-9.556,7.241
		c-3.316,0.737-7.737-0.737-9.58-3.316c-1.672-2.341-2.479-4.045-2.771-7.737c-0.176-2.21,0-5.526,1.474-8.842
		s4.053-6.263,8.105-7.368c4.053-1.105,8.328,0.487,11.053,3.684c3.14,3.684,2.843,6.632,2.772,7.737
		C183.384,67.725,182.837,70.557,181.983,74.838z"/>
	<path fill="#F51439" d="M152.839,60.964c0.936-2.227,0.737-7-4.053-10.685c-5.361-4.124-11.053-2.579-14.737-0.369
		c-3.684,2.211-6.632,6.264-8.474,11.053c-1.508,3.921-1.842,8.105-1.474,11.421c0.017,0.158,0.038,0.314,0.059,0.471
		c-1.358,0.652-3.323,1.59-3.606,1.74c-2.111,1.105-2.792,5.546-1.743,5.895c1.105,0.368,2.344-0.346,3.684-1.112
		c0.223-0.127,1.931-1.062,2.934-1.703c0.637,1.552,1.518,3.104,2.725,4.657c2.579,3.316,7.369,6.264,12.526,5.527
		c5.836-0.834,8.842-4.421,9.948-7.737s-1.105-7.369-1.474-6.263c-0.369,1.105-2.947,7.369-9.211,8.474
		c-3.646,0.644-7.056-0.82-8.842-2.947c-1.238-1.474-2.217-3.945-1.974-4.09C136.496,70.912,151.602,63.912,152.839,60.964z
		 M129.26,62.438c1.71-4.053,3.92-6.263,7.973-7.369s7.605,1.312,8.606,3.316c0.737,1.474,1.166,2.947,0.429,4.053
		c0,0-13.289,6.161-18.245,8.556C127.816,71.093,127.85,65.781,129.26,62.438z"/>
</g>
</svg>
